name C:\Users\u0101727\Documents\MyRepositories\upper-imu-dc\OpenSim\subject0\MA\ResultsMA\grid_4nodes_9dim\angles_17.mot
datacolumns 10
datarows 28
range 1775.01000000 1775.28000000
endheader 
time	clav_prot	clav_elev	scapula_abduction	scapula_elevation	scapula_upward_rot	scapula_winging	plane_elv	shoulder_elv	axial_rot	
       1775.01000000	        -50.00000000	         20.00000000	        -21.66666667	         -3.33333333	         30.00000000	        -10.00000000	         90.00000000	         63.33333333	         30.00000000	
       1775.02000000	        -38.33333333	         20.00000000	        -21.66666667	         -3.33333333	         30.00000000	        -10.00000000	         90.00000000	         63.33333333	         30.00000000	
       1775.03000000	        -26.66666667	         20.00000000	        -21.66666667	         -3.33333333	         30.00000000	        -10.00000000	         90.00000000	         63.33333333	         30.00000000	
       1775.04000000	        -15.00000000	         20.00000000	        -21.66666667	         -3.33333333	         30.00000000	        -10.00000000	         90.00000000	         63.33333333	         30.00000000	
       1775.05000000	        -50.00000000	        -10.00000000	         -3.33333333	         -3.33333333	         30.00000000	        -10.00000000	         90.00000000	         63.33333333	         30.00000000	
       1775.06000000	        -38.33333333	        -10.00000000	         -3.33333333	         -3.33333333	         30.00000000	        -10.00000000	         90.00000000	         63.33333333	         30.00000000	
       1775.07000000	        -26.66666667	        -10.00000000	         -3.33333333	         -3.33333333	         30.00000000	        -10.00000000	         90.00000000	         63.33333333	         30.00000000	
       1775.08000000	        -15.00000000	        -10.00000000	         -3.33333333	         -3.33333333	         30.00000000	        -10.00000000	         90.00000000	         63.33333333	         30.00000000	
       1775.09000000	        -50.00000000	          0.00000000	         -3.33333333	         -3.33333333	         30.00000000	        -10.00000000	         90.00000000	         63.33333333	         30.00000000	
       1775.10000000	        -38.33333333	          0.00000000	         -3.33333333	         -3.33333333	         30.00000000	        -10.00000000	         90.00000000	         63.33333333	         30.00000000	
       1775.11000000	        -26.66666667	          0.00000000	         -3.33333333	         -3.33333333	         30.00000000	        -10.00000000	         90.00000000	         63.33333333	         30.00000000	
       1775.12000000	        -15.00000000	          0.00000000	         -3.33333333	         -3.33333333	         30.00000000	        -10.00000000	         90.00000000	         63.33333333	         30.00000000	
       1775.13000000	        -50.00000000	         10.00000000	         -3.33333333	         -3.33333333	         30.00000000	        -10.00000000	         90.00000000	         63.33333333	         30.00000000	
       1775.14000000	        -38.33333333	         10.00000000	         -3.33333333	         -3.33333333	         30.00000000	        -10.00000000	         90.00000000	         63.33333333	         30.00000000	
       1775.15000000	        -26.66666667	         10.00000000	         -3.33333333	         -3.33333333	         30.00000000	        -10.00000000	         90.00000000	         63.33333333	         30.00000000	
       1775.16000000	        -15.00000000	         10.00000000	         -3.33333333	         -3.33333333	         30.00000000	        -10.00000000	         90.00000000	         63.33333333	         30.00000000	
       1775.17000000	        -50.00000000	         20.00000000	         -3.33333333	         -3.33333333	         30.00000000	        -10.00000000	         90.00000000	         63.33333333	         30.00000000	
       1775.18000000	        -38.33333333	         20.00000000	         -3.33333333	         -3.33333333	         30.00000000	        -10.00000000	         90.00000000	         63.33333333	         30.00000000	
       1775.19000000	        -26.66666667	         20.00000000	         -3.33333333	         -3.33333333	         30.00000000	        -10.00000000	         90.00000000	         63.33333333	         30.00000000	
       1775.20000000	        -15.00000000	         20.00000000	         -3.33333333	         -3.33333333	         30.00000000	        -10.00000000	         90.00000000	         63.33333333	         30.00000000	
       1775.21000000	        -50.00000000	        -10.00000000	         15.00000000	         -3.33333333	         30.00000000	        -10.00000000	         90.00000000	         63.33333333	         30.00000000	
       1775.22000000	        -38.33333333	        -10.00000000	         15.00000000	         -3.33333333	         30.00000000	        -10.00000000	         90.00000000	         63.33333333	         30.00000000	
       1775.23000000	        -26.66666667	        -10.00000000	         15.00000000	         -3.33333333	         30.00000000	        -10.00000000	         90.00000000	         63.33333333	         30.00000000	
       1775.24000000	        -15.00000000	        -10.00000000	         15.00000000	         -3.33333333	         30.00000000	        -10.00000000	         90.00000000	         63.33333333	         30.00000000	
       1775.25000000	        -50.00000000	          0.00000000	         15.00000000	         -3.33333333	         30.00000000	        -10.00000000	         90.00000000	         63.33333333	         30.00000000	
       1775.26000000	        -38.33333333	          0.00000000	         15.00000000	         -3.33333333	         30.00000000	        -10.00000000	         90.00000000	         63.33333333	         30.00000000	
       1775.27000000	        -26.66666667	          0.00000000	         15.00000000	         -3.33333333	         30.00000000	        -10.00000000	         90.00000000	         63.33333333	         30.00000000	
       1775.28000000	        -15.00000000	          0.00000000	         15.00000000	         -3.33333333	         30.00000000	        -10.00000000	         90.00000000	         63.33333333	         30.00000000	
